<?xml version="1.0" encoding="UTF-8" standalone="no"?>
<!DOCTYPE svg PUBLIC "-//W3C//DTD SVG 1.1//EN" "http://www.w3.org/Graphics/SVG/1.1/DTD/svg11.dtd">
<svg width="100%" height="100%" viewBox="0 0 1987 597" version="1.1" xmlns="http://www.w3.org/2000/svg" xmlns:xlink="http://www.w3.org/1999/xlink" xml:space="preserve" xmlns:serif="http://www.serif.com/" style="fill-rule:evenodd;clip-rule:evenodd;stroke-linejoin:round;stroke-miterlimit:2;">
    <g transform="matrix(1,0,0,1,-111.868,-1476.64)">
        <g transform="matrix(1,0,0,1,111.868,1476.64)">
            <g id="Layer-1" serif:id="Layer 1">
                <g transform="matrix(1,0,0,1,173.196,596.595)">
                    <path d="M0,-596.595L250.184,-596.595C345.447,-596.595 423.383,-518.65 423.383,-423.389L423.383,-173.209C423.383,-77.936 345.447,0 250.184,0L0,0C-95.263,0 -173.196,-77.936 -173.196,-173.209L-173.196,-423.389C-173.196,-518.65 -95.263,-596.595 0,-596.595" style="fill:rgb(245,246,247);"/>
                </g>
                <g transform="matrix(1,0,0,1,365.176,129.741)">
                    <path d="M0,82.117L-12.745,82.117L-12.745,27.51C-12.525,7.689 -117.628,7.485 -117.628,27.51L-117.628,82.117L-130.379,82.117L-130.379,27.51C-130.379,21.002 -127.72,15.097 -123.44,10.814C-116.929,3.952 -92.011,0 -66.653,0.258C-41.027,0.504 -14.96,3.645 -6.939,10.814C-2.656,15.097 0,21.002 0,27.51L0,82.117Z" style="fill:rgb(234,29,37);"/>
                </g>
                <g transform="matrix(1,0,0,1,167.41,176.854)">
                    <path d="M0,-11.053L34.225,-11.053C36.829,-11.053 38.968,-8.918 38.968,-6.316L38.968,-4.737C38.968,-2.123 36.829,0 34.221,0L0,0C-2.614,0 -4.743,-2.123 -4.743,-4.73L-4.743,-6.316C-4.743,-8.918 -2.614,-11.053 0,-11.053" style="fill:white;"/>
                </g>
                <g transform="matrix(1,0,0,1,398.351,176.854)">
                    <path d="M0,-11.053L34.218,-11.053C36.823,-11.053 38.961,-8.918 38.961,-6.316L38.964,-4.737C38.964,-2.123 36.823,0 34.218,0L0,0C-2.608,0 -4.75,-2.123 -4.75,-4.73L-4.75,-6.316C-4.75,-8.918 -2.608,-11.053 0,-11.053" style="fill:white;"/>
                </g>
                <g transform="matrix(1,0,0,1,134.362,446.66)">
                    <path d="M0,-269.806L331.257,-269.806C349.063,-269.806 363.63,-255.226 363.63,-237.429L363.63,-32.38C363.63,-14.583 349.063,0 331.257,0L0,-0.006C-17.816,-0.006 -32.38,-14.583 -32.38,-32.38L-32.38,-237.429C-32.38,-255.226 -17.816,-269.806 0,-269.806" style="fill:rgb(234,29,37);"/>
                </g>
                <g transform="matrix(1,0,0,1,299.987,229.505)">
                    <path d="M0,164.498C45.3,164.498 82.247,127.551 82.247,82.254C82.251,36.947 45.3,0 0,0C-45.297,0 -82.244,36.947 -82.244,82.254C-82.244,127.551 -45.297,164.498 0,164.498" style="fill:rgb(222,35,38);"/>
                </g>
                <g transform="matrix(1,0,0,1,299.987,229.501)">
                    <path d="M0,161.249L0,167.748C47.11,167.742 85.494,129.358 85.503,82.258C85.494,35.147 47.11,-3.233 0,-3.246C-47.103,-3.233 -85.49,35.147 -85.5,82.258C-85.49,129.358 -47.103,167.742 0,167.748L0,161.249C-21.751,161.249 -41.483,152.383 -55.807,138.062C-70.132,123.734 -78.989,104.016 -78.989,82.258C-78.989,60.493 -70.132,40.762 -55.807,26.444C-41.483,12.123 -21.751,3.259 0,3.259C21.758,3.259 41.493,12.123 55.817,26.444C70.135,40.762 78.996,60.493 79.001,82.258C78.996,104.016 70.135,123.734 55.817,138.062C41.493,152.383 21.758,161.249 0,161.249Z" style="fill:white;"/>
                </g>
                <g transform="matrix(1,0,0,1,299.987,220.66)">
                    <path d="M0,182.184C50.171,182.184 91.098,141.263 91.098,91.099C91.098,40.918 50.171,0 0,0C-50.171,0 -91.095,40.918 -91.095,91.099C-91.095,141.263 -50.171,182.184 0,182.184" style="fill:rgb(234,29,37);"/>
                </g>
                <g transform="matrix(1,0,0,1,368.89,242.853)">
                    <path d="M0,137.796C-17.663,155.456 -42.044,166.407 -68.903,166.407C-95.758,166.407 -120.14,155.456 -137.799,137.796C-155.459,120.142 -166.414,95.761 -166.414,68.906C-166.414,42.048 -155.466,17.663 -137.806,0.003C-120.146,-17.66 -95.758,-28.611 -68.903,-28.611C-42.044,-28.611 -17.663,-17.66 0,0.003C17.66,17.663 28.611,42.048 28.611,68.906C28.611,95.761 17.657,120.142 0,137.796M-68.903,153.573C-45.591,153.573 -24.42,144.058 -9.077,128.719C6.259,113.383 15.774,92.212 15.774,68.906C15.774,45.594 6.265,24.423 -9.077,9.08C-24.416,-6.26 -45.587,-15.77 -68.903,-15.77C-92.215,-15.77 -113.386,-6.26 -128.725,9.08C-144.068,24.423 -153.576,45.594 -153.576,68.906C-153.576,92.212 -144.061,113.383 -128.725,128.719C-113.383,144.058 -92.212,153.573 -68.903,153.573" style="fill:rgb(235,236,237);"/>
                </g>
                <g transform="matrix(1,0,0,1,290.964,369.443)">
                    <path d="M0,-116.824L18.053,-116.824C21.27,-116.824 23.89,-114.194 23.89,-110.98L23.89,-73.285L61.594,-73.285C64.812,-73.285 67.438,-70.643 67.438,-67.432L67.438,-49.379C67.438,-46.169 64.812,-43.542 61.594,-43.542L23.89,-43.542L23.89,-5.841C23.89,-2.627 21.264,0 18.053,0L0,0C-3.214,0 -5.844,-2.627 -5.844,-5.841L-5.844,-43.542L-43.551,-43.542C-46.762,-43.542 -49.392,-46.169 -49.392,-49.379L-49.392,-67.432C-49.392,-70.643 -46.762,-73.279 -43.551,-73.279L-5.844,-73.285L-5.844,-110.98C-5.844,-114.197 -3.214,-116.824 0,-116.824" style="fill:rgb(235,236,237);"/>
                </g>
                <g transform="matrix(0,1,1,0,377.841,147.492)">
                    <path d="M9.759,-12.665L29.362,-12.665L29.362,16.698L-6.938,-19.604C-2.654,-15.321 3.251,-12.665 9.759,-12.665" style="fill:rgb(235,236,237);"/>
                </g>
                <g transform="matrix(0,1,1,0,299.888,104.487)">
                    <path d="M52.763,-52.341L72.366,-52.341L72.366,52.543L52.763,52.543C32.942,52.763 32.738,-52.341 52.763,-52.341" style="fill:rgb(235,236,237);"/>
                </g>
                <g transform="matrix(1,0,0,1,226.632,232.212)">
                    <path d="M0,320.005L44.371,364.383L196.748,364.383C292.011,364.383 369.947,286.441 369.947,191.174L369.947,62.343L337.251,29.644L263.234,-44.378C268.284,-38.662 271.361,-31.162 271.361,-22.981L271.361,182.065C271.361,199.865 256.794,214.442 238.987,214.442L-92.27,214.442C-100.59,214.442 -108.206,211.257 -113.957,206.048L0,320.005Z" style="fill:rgb(235,236,237);"/>
                </g>
                <g transform="matrix(1,0,0,1,-248.868,-1456.13)">
                    <g transform="matrix(266.667,0,0,266.667,2224.81,1865.16)">
                    </g>
                    <text x="880.814px" y="1865.16px" style="font-family:'BachelorettePERSONALUSEONLY-Regular', 'Bachelorette PERSONAL USE ONLY';font-size:266.667px;fill:rgb(40,41,56);">Fatu Amara</text>
                </g>
            </g>
        </g>
    </g>
</svg>
